<svg version="1" xmlns="http://www.w3.org/2000/svg" width="682.667" height="682.667" viewBox="0 0 512.000000 512.000000"><path d="M335.5 44.4c-1.6.7-26.1 24.4-54.4 52.5-28.3 28.2-51.8 51.3-52.2 51.4-.4.1-15.9-14.8-34.4-33.1s-34.7-33.8-35.9-34.3c-1.7-.8-3.2-.7-5.9.4-4.3 1.8-6.2 6.6-4.3 10.5.7 1.3 15.3 16.4 32.6 33.7l31.5 31.5h-90c-55.7 0-91.6.4-94.3 1-10.9 2.5-20 9.8-24.9 19.8l-2.8 5.7v259l2.7 5.6c3.5 7 10.5 14 17.7 17.6l5.6 2.8h459l5.6-2.8c7-3.4 13.8-10.2 17.5-17.6l2.9-5.6v-259l-2.8-5.6c-3.5-7.2-10.2-13.9-17.5-17.5l-5.7-2.9-120.2-.5-120.3-.5 48.5-48.5c26.6-26.7 49.4-49.8 50.6-51.4 2.8-3.8 3-10.1.3-12.1-2.4-1.8-5-1.8-8.9-.1zM364 193.9c14.2 3.9 25.7 15.9 28.9 30.2.7 2.8 1 36.5 1 90.4 0 85.9-.1 86-2.2 91.7-4.4 11.5-13.5 20.7-24.4 24.8l-5.8 2.1h-147c-132 0-147.5-.1-151.5-1.6-13.8-4.9-23.4-15.5-26.9-29.7-.8-3.4-1-28.6-.9-91.5l.3-86.8 3.2-6.7c4.2-9 11-16 19.2-20.1 6-2.9 7.5-3.2 19.1-3.7 6.9-.3 73.3-.5 147.5-.4 103.9.1 136 .4 139.5 1.3zm94.7 69.6c17 8.5 17.2 31.7.4 40.8-17.5 9.6-38.5-7.5-32.7-26.6 4.2-14.1 19.3-20.7 32.3-14.2zm-.5 57.6c8.2 4.1 13.7 12.6 13.2 20.6-.1 1.8-.2 4.3-.3 5.6-.2 3.6-5.6 11.1-10.2 14.2-8.3 5.4-20.7 4.3-27.9-2.5-9.3-8.7-10-23-1.8-32.3 6.6-7.5 18.5-9.9 27-5.6z"/></svg>